<svg viewBox="0 0 57 91" id="svg-win-type-1" xmlns="http://www.w3.org/2000/svg">
  <g fill="none" stroke-linecap="round" stroke-linejoin="round" stroke="currentColor">
    <path stroke-width="5.333" d="M6.035 2.667h44.988a2.368 2.368 0 0 1 2.368 2.368V85.54a2.368 2.368 0 0 1-2.368 2.368H6.035a2.368 2.368 0 0 1-2.368-2.368V5.035a2.368 2.368 0 0 1 2.368-2.368z"></path>
    <path stroke-width="2.667" d="M6.747 84.855L50.08 5.41m0 79.444L6.747 5.41"></path>
  </g>
</svg>

<svg viewBox="0 0 106 91" id="svg-win-type-2" xmlns="http://www.w3.org/2000/svg">
  <g fill="none" stroke-linecap="round" stroke-linejoin="round" stroke="currentColor">
    <path stroke-width="5.333" d="M6.035 2.667h44.988a2.368 2.368 0 0 1 2.368 2.368V85.54a2.368 2.368 0 0 1-2.368 2.368H6.035a2.368 2.368 0 0 1-2.368-2.368V5.035a2.368 2.368 0 0 1 2.368-2.368z"></path>
    <path stroke-width="2.667" d="M6.747 84.855L50.08 5.41m0 79.444L6.747 5.41"></path>
    <path stroke-width="5.333" d="M55.785 2.667h44.988a2.368 2.368 0 0 1 2.368 2.368V85.54a2.368 2.368 0 0 1-2.368 2.368H55.785a2.368 2.368 0 0 1-2.368-2.368V5.035a2.368 2.368 0 0 1 2.368-2.368z"></path>
    <path stroke-width="2.667" d="M56.497 84.855L99.83 5.41m0 79.444L56.497 5.41"></path>
  </g>
</svg>

<svg viewBox="0 0 156 91" id="svg-win-type-3" xmlns="http://www.w3.org/2000/svg">
  <g fill="none" stroke-linecap="round" stroke-linejoin="round" stroke="currentColor">
    <path stroke-width="5.333" d="M6.035 2.667h44.988a2.368 2.368 0 0 1 2.368 2.368V85.54a2.368 2.368 0 0 1-2.368 2.368H6.035a2.368 2.368 0 0 1-2.368-2.368V5.035a2.368 2.368 0 0 1 2.368-2.368z"></path>
    <path stroke-width="2.667" d="M6.747 84.855L50.08 5.41m0 79.444L6.747 5.41"></path>
    <path stroke-width="5.333" d="M55.868 2.667h44.988a2.368 2.368 0 0 1 2.368 2.368V85.54a2.368 2.368 0 0 1-2.368 2.368H55.868A2.368 2.368 0 0 1 53.5 85.54V5.035a2.368 2.368 0 0 1 2.368-2.368z"></path>
    <path stroke-width="2.667" d="M56.58 84.855L99.914 5.41m0 79.444L56.58 5.41"></path>
    <path stroke-width="5.333" d="M105.701 2.667h44.988a2.368 2.368 0 0 1 2.368 2.368V85.54a2.368 2.368 0 0 1-2.368 2.368h-44.988a2.368 2.368 0 0 1-2.368-2.368V5.035a2.368 2.368 0 0 1 2.368-2.368z"></path>
    <path stroke-width="2.667" d="M106.414 84.855L149.747 5.41m0 79.444L106.414 5.41"></path>
  </g>
</svg>

<svg id="svg-win-type-8" viewBox="0 0 21 36" fill="none" xmlns="http://www.w3.org/2000/svg">
  <path fill-rule="evenodd" clip-rule="evenodd" d="M18.0689 13H2.9047L10.4652 8.1888L18.0689 13ZM19 12.4102V2.75754L11.3941 7.59766L19 12.4102ZM10.4679 7.01164L18.3434 2H2.54737L10.4679 7.01164ZM2 2.83258L9.53899 7.60278L2 12.4003V2.83258ZM0.00192138 14.0625C0.000646739 14.0418 0 14.021 0 14V1C0 0.447715 0.447715 0 1 0H20C20.5523 0 21 0.447716 21 1V14C21 14.021 20.9993 14.0418 20.9981 14.0625C20.9993 14.0832 21 14.104 21 14.125V34.125C21 34.6773 20.5523 35.125 20 35.125H0.999999C0.447715 35.125 0 34.6773 0 34.125V14.125C0 14.104 0.000646739 14.0832 0.00192138 14.0625ZM2 15.7481V32.5906L9.93536 24.2263L2 15.7481ZM18.2643 33.125H2.76735L10.5682 24.9025L18.2643 33.125ZM19 32.4476L11.2577 24.1757L19 16.0149V32.4476ZM2.78644 15.125H18.57L10.6248 23.4996L2.78644 15.125Z" fill="currentColor"></path>
</svg>

<svg id="svg-win-type-9" viewBox="0 0 40 35" fill="none" xmlns="http://www.w3.org/2000/svg">
  <path fill-rule="evenodd" clip-rule="evenodd" d="M20 7.19585L37.5046 2H2.49536L20 7.19585ZM18.2429 7.71741L2 2.89609V12.5387L18.2429 7.71741ZM20 8.23897L36.0397 13H20H3.96026L20 8.23897ZM38 12.5387L21.7571 7.71741L38 2.89609V12.5387ZM0 14V1C0 0.447715 0.447715 0 1 0H39C39.5523 0 40 0.447716 40 1V14V34C40 34.5523 39.5523 35 39 35H20H1C0.447715 35 0 34.5523 0 34V14ZM37.6885 15H21.6694L29.6248 23.4996L37.6885 15ZM18.5812 15H2.77403L10.6241 23.435L18.5812 15ZM2 32.5773V15.6363L9.9364 24.1641L2 32.5773ZM2.87463 33H18.1596L10.5688 24.8436L2.87463 33ZM11.2565 24.1145L19 32.435V15.9059L11.2565 24.1145ZM21 15.7482V32.5906L28.9353 24.2264L21 15.7482ZM37.1472 33H21.8859L29.5682 24.9025L37.1472 33ZM38 32.4477L30.2576 24.1758L38 16.0149V32.4477Z" fill="currentColor"></path>
</svg>

<svg id="svg-win-type-10" viewBox="0 0 59 35" fill="none" xmlns="http://www.w3.org/2000/svg">
  <path fill-rule="evenodd" clip-rule="evenodd" d="M33.9198 7.49986L57 12.1208V2.87894L33.9198 7.49986ZM31.3729 6.98994L6.44962 2H56.2962L31.3729 6.98994ZM28.826 7.49986L2 12.8707V2.12898L28.826 7.49986ZM6.44825 13L31.3729 8.00978L56.2976 13H6.44825ZM0.00192135 14.0625C0.000646729 14.0418 0 14.021 0 14V0.999999C0 0.447715 0.447715 0 1 0H58C58.5523 0 59 0.447716 59 1V14C59 14.021 58.9994 14.0419 58.9981 14.0626C58.9993 14.0832 59 14.104 59 14.125V34C59 34.5523 58.5523 35 58 35H39H20H0.999999C0.447715 35 0 34.5523 0 34V14.125C0 14.104 0.000646729 14.0832 0.00192135 14.0625ZM2 15.7481V32.5906L9.93536 24.2263L2 15.7481ZM18.1473 33H2.88596L10.5682 24.9025L18.1473 33ZM19 32.4476L11.2577 24.1757L19 16.0149V32.4476ZM2.78644 15.125H18.57L10.6248 23.4996L2.78644 15.125ZM30.2577 24.1757L38 32.4476V16.0149L30.2577 24.1757ZM29.5682 24.9025L37.1473 33H21.886L29.5682 24.9025ZM28.9354 24.2263L21 32.5906V15.7481L28.9354 24.2263ZM29.6248 23.4996L37.57 15.125H21.7864L29.6248 23.4996ZM57 32.4476L49.2577 24.1757L57 16.0149V32.4476ZM56.1473 33L48.5682 24.9025L40.886 33H56.1473ZM40 32.5906L47.9354 24.2263L40 15.7481V32.5906ZM56.57 15.125L48.6248 23.4996L40.7864 15.125H56.57Z" fill="currentColor"></path>
</svg>