<svg viewBox="0 0 106 91" id="svg-win-type-2" xmlns="http://www.w3.org/2000/svg">
  <g fill="none" stroke-linecap="round" stroke-linejoin="round" stroke="currentColor">
    <path stroke-width="5.333" d="M6.035 2.667h44.988a2.368 2.368 0 0 1 2.368 2.368V85.54a2.368 2.368 0 0 1-2.368 2.368H6.035a2.368 2.368 0 0 1-2.368-2.368V5.035a2.368 2.368 0 0 1 2.368-2.368z"></path>
    <path stroke-width="2.667" d="M6.747 84.855L50.08 5.41m0 79.444L6.747 5.41"></path>
    <path stroke-width="5.333" d="M55.785 2.667h44.988a2.368 2.368 0 0 1 2.368 2.368V85.54a2.368 2.368 0 0 1-2.368 2.368H55.785a2.368 2.368 0 0 1-2.368-2.368V5.035a2.368 2.368 0 0 1 2.368-2.368z"></path>
    <path stroke-width="2.667" d="M56.497 84.855L99.83 5.41m0 79.444L56.497 5.41"></path>
  </g>
</svg>