<svg id="svg-win-type-9" viewBox="0 0 40 35" fill="none" xmlns="http://www.w3.org/2000/svg">
  <path fill-rule="evenodd" clip-rule="evenodd" d="M20 7.19585L37.5046 2H2.49536L20 7.19585ZM18.2429 7.71741L2 2.89609V12.5387L18.2429 7.71741ZM20 8.23897L36.0397 13H20H3.96026L20 8.23897ZM38 12.5387L21.7571 7.71741L38 2.89609V12.5387ZM0 14V1C0 0.447715 0.447715 0 1 0H39C39.5523 0 40 0.447716 40 1V14V34C40 34.5523 39.5523 35 39 35H20H1C0.447715 35 0 34.5523 0 34V14ZM37.6885 15H21.6694L29.6248 23.4996L37.6885 15ZM18.5812 15H2.77403L10.6241 23.435L18.5812 15ZM2 32.5773V15.6363L9.9364 24.1641L2 32.5773ZM2.87463 33H18.1596L10.5688 24.8436L2.87463 33ZM11.2565 24.1145L19 32.435V15.9059L11.2565 24.1145ZM21 15.7482V32.5906L28.9353 24.2264L21 15.7482ZM37.1472 33H21.8859L29.5682 24.9025L37.1472 33ZM38 32.4477L30.2576 24.1758L38 16.0149V32.4477Z" fill="currentColor"></path>
</svg>