<svg id="svg-win-type-10" viewBox="0 0 59 35" fill="none" xmlns="http://www.w3.org/2000/svg">
  <path fill-rule="evenodd" clip-rule="evenodd" d="M33.9198 7.49986L57 12.1208V2.87894L33.9198 7.49986ZM31.3729 6.98994L6.44962 2H56.2962L31.3729 6.98994ZM28.826 7.49986L2 12.8707V2.12898L28.826 7.49986ZM6.44825 13L31.3729 8.00978L56.2976 13H6.44825ZM0.00192135 14.0625C0.000646729 14.0418 0 14.021 0 14V0.999999C0 0.447715 0.447715 0 1 0H58C58.5523 0 59 0.447716 59 1V14C59 14.021 58.9994 14.0419 58.9981 14.0626C58.9993 14.0832 59 14.104 59 14.125V34C59 34.5523 58.5523 35 58 35H39H20H0.999999C0.447715 35 0 34.5523 0 34V14.125C0 14.104 0.000646729 14.0832 0.00192135 14.0625ZM2 15.7481V32.5906L9.93536 24.2263L2 15.7481ZM18.1473 33H2.88596L10.5682 24.9025L18.1473 33ZM19 32.4476L11.2577 24.1757L19 16.0149V32.4476ZM2.78644 15.125H18.57L10.6248 23.4996L2.78644 15.125ZM30.2577 24.1757L38 32.4476V16.0149L30.2577 24.1757ZM29.5682 24.9025L37.1473 33H21.886L29.5682 24.9025ZM28.9354 24.2263L21 32.5906V15.7481L28.9354 24.2263ZM29.6248 23.4996L37.57 15.125H21.7864L29.6248 23.4996ZM57 32.4476L49.2577 24.1757L57 16.0149V32.4476ZM56.1473 33L48.5682 24.9025L40.886 33H56.1473ZM40 32.5906L47.9354 24.2263L40 15.7481V32.5906ZM56.57 15.125L48.6248 23.4996L40.7864 15.125H56.57Z" fill="currentColor"></path>
</svg>