<svg id="svg-win-type-8" viewBox="0 0 21 36" fill="none" xmlns="http://www.w3.org/2000/svg">
  <path fill-rule="evenodd" clip-rule="evenodd" d="M18.0689 13H2.9047L10.4652 8.1888L18.0689 13ZM19 12.4102V2.75754L11.3941 7.59766L19 12.4102ZM10.4679 7.01164L18.3434 2H2.54737L10.4679 7.01164ZM2 2.83258L9.53899 7.60278L2 12.4003V2.83258ZM0.00192138 14.0625C0.000646739 14.0418 0 14.021 0 14V1C0 0.447715 0.447715 0 1 0H20C20.5523 0 21 0.447716 21 1V14C21 14.021 20.9993 14.0418 20.9981 14.0625C20.9993 14.0832 21 14.104 21 14.125V34.125C21 34.6773 20.5523 35.125 20 35.125H0.999999C0.447715 35.125 0 34.6773 0 34.125V14.125C0 14.104 0.000646739 14.0832 0.00192138 14.0625ZM2 15.7481V32.5906L9.93536 24.2263L2 15.7481ZM18.2643 33.125H2.76735L10.5682 24.9025L18.2643 33.125ZM19 32.4476L11.2577 24.1757L19 16.0149V32.4476ZM2.78644 15.125H18.57L10.6248 23.4996L2.78644 15.125Z" fill="currentColor"></path>
</svg>