<svg viewBox="0 0 274 298" xmlns="http://www.w3.org/2000/svg" xmlns:xlink="http://www.w3.org/1999/xlink"><linearGradient id="a" gradientUnits="userSpaceOnUse" x1="53.27" x2="25.39" y1="102.58" y2="221.44"><stop offset="0" stop-color="#fff"/><stop offset="1" stop-color="#fff" stop-opacity="0"/></linearGradient><linearGradient id="c" x1="121.81" x2="99.85" xlink:href="#a" y1="-6.51" y2="87.11"/><linearGradient id="d" x1="202.61" x2="177.85" xlink:href="#a" y1="113.13" y2="218.69"/><linearGradient id="b" gradientUnits="userSpaceOnUse" x1="144.45" x2="153.57" y1="189.91" y2="189.91"><stop offset="0" stop-color="#666"/><stop offset=".17" stop-color="#6b6b6b"/><stop offset=".37" stop-color="#797a7a"/><stop offset=".59" stop-color="#919292"/><stop offset=".82" stop-color="#b2b4b4"/><stop offset="1" stop-color="#d1d3d4"/></linearGradient><linearGradient id="e" x1="146.78" x2="151.33" xlink:href="#b" y1="202.72" y2="202.72"/><linearGradient id="f" x1="266" x2="270" xlink:href="#b" y1="124.75" y2="124.75"/><linearGradient id="g" x1="266" x2="270" xlink:href="#b" y1="266.75" y2="266.75"/><path d="M0 94v204h144V94zm130 190H14V108h116z" fill="#ebebeb"/><path d="M130 108l2-2H12l2 2z" fill="#d6d6d6"/><path d="M14 108l-2-2v180l2-2z" fill="#f7f7f7"/><path d="M130 108v176l2 2V106z" fill="#d6d6d6"/><path d="M14 284l-2 2h120l-2-2z" fill="#f7f7f7"/><path d="M31 248H14V108h76z" fill="url(#a)" opacity=".2"/><path d="M129 109v174H15V109zm1-1H14v176h116z" fill="#666"/><path d="M0 0v104h274V0zm260 90H14V14h246z" fill="#ebebeb"/><path d="M260 14l2-2H12l2 2z" fill="#d6d6d6"/><path d="M14 14l-2-2v80l2-2z" fill="#f7f7f7"/><path d="M260 14v76l2 2V12z" fill="#d6d6d6"/><path d="M14 90l-2 2h250l-2-2z" fill="#f7f7f7"/><path d="M181 90H14V14h206z" fill="url(#c)" opacity=".2"/><path d="M259 15v74H15V15zm1-1H14v76h246z" fill="#666"/><path d="M132 94v204h142V94zm118 180h-94V118h94z" fill="#ebebeb"/><path d="M141 103v186h124V103zm109 171h-94V118h94z" fill="#ebebeb"/><path d="M264 104l2-2H140l2 2z" fill="#f7f7f7"/><path d="M142 104l-2-2v188l2-2z" fill="#d6d6d6"/><path d="M142 288l-2 2h126l-2-2z" fill="#d6d6d6"/><path d="M264 104v184l2 2V102z" fill="#f7f7f7"/><path d="M249 120l2-2h-95l2 2z" fill="#d6d6d6"/><path d="M158 120l-2-2v156l2-2z" fill="#f7f7f7"/><path d="M249 120v152l2 2V118z" fill="#d6d6d6"/><path d="M158 272l-2 2h95l-2-2z" fill="#f7f7f7"/><path d="M185 240h-27V120h86z" fill="url(#d)" opacity=".2"/><path d="M248 121v150h-89V121zm1-1h-91v152h91z" fill="#666"/><g stroke="#666" stroke-width=".28"><path d="M153.57 194.48c0 1.85-2 3.35-4.56 3.35-2.52 0-4.56-1.5-4.56-3.35v-9.13c0-1.85 2-3.35 4.56-3.35 2.51 0 4.56 1.5 4.56 3.35z" fill="url(#b)"/><path d="M151 215a1.94 1.94 0 0 1-1.94 1.94 1.93 1.93 0 0 1-1.94-1.94l-.29-24.54a2.2 2.2 0 0 1 2.23-1.94c1.07 0 2.32.82 2.32 1.9z" fill="url(#e)"/><path d="M270 135.68a1.92 1.92 0 0 1-2 1.82 1.92 1.92 0 0 1-2-1.82v-21.86a1.92 1.92 0 0 1 2-1.83 1.92 1.92 0 0 1 2 1.83z" fill="url(#f)"/><path d="M270 277.68a1.92 1.92 0 0 1-2 1.82 1.92 1.92 0 0 1-2-1.82v-21.86a1.92 1.92 0 0 1 2-1.83 1.92 1.92 0 0 1 2 1.83z" fill="url(#g)"/></g></svg>