<svg width="117" height="98" xmlns="http://www.w3.org/2000/svg"><defs><linearGradient x1="51.407%" y1="-2.448%" x2="4.116%" y2="80.095%" id="a"><stop stop-color="#FFF" offset="0%"/><stop stop-color="#FFF" stop-opacity="0" offset="100%"/></linearGradient><linearGradient x1="0%" y1="49.968%" x2="100%" y2="49.968%" id="b"><stop stop-color="#666" offset="0%"/><stop stop-color="#6B6B6B" offset="17%"/><stop stop-color="#797A7A" offset="37%"/><stop stop-color="#919292" offset="59%"/><stop stop-color="#B2B4B4" offset="82%"/><stop stop-color="#D1D3D4" offset="100%"/></linearGradient><linearGradient x1="-1.099%" y1="49.966%" x2="98.901%" y2="49.966%" id="c"><stop stop-color="#666" offset="0%"/><stop stop-color="#6B6B6B" offset="17%"/><stop stop-color="#797A7A" offset="37%"/><stop stop-color="#919292" offset="59%"/><stop stop-color="#B2B4B4" offset="82%"/><stop stop-color="#D1D3D4" offset="100%"/></linearGradient><linearGradient x1="0%" y1="50%" x2="100%" y2="50%" id="d"><stop stop-color="#666" offset="0%"/><stop stop-color="#6B6B6B" offset="17%"/><stop stop-color="#797A7A" offset="37%"/><stop stop-color="#919292" offset="59%"/><stop stop-color="#B2B4B4" offset="82%"/><stop stop-color="#D1D3D4" offset="100%"/></linearGradient><linearGradient x1="0%" y1="50.02%" x2="100%" y2="50.02%" id="e"><stop stop-color="#666" offset="0%"/><stop stop-color="#6B6B6B" offset="17%"/><stop stop-color="#797A7A" offset="37%"/><stop stop-color="#919292" offset="59%"/><stop stop-color="#B2B4B4" offset="82%"/><stop stop-color="#D1D3D4" offset="100%"/></linearGradient><linearGradient x1="48.593%" y1="-2.448%" x2="95.884%" y2="80.095%" id="f"><stop stop-color="#FFF" offset="0%"/><stop stop-color="#FFF" stop-opacity="0" offset="100%"/></linearGradient><linearGradient x1="100%" y1="49.968%" x2="-.11%" y2="49.968%" id="g"><stop stop-color="#666" offset="0%"/><stop stop-color="#6B6B6B" offset="17%"/><stop stop-color="#797A7A" offset="37%"/><stop stop-color="#919292" offset="59%"/><stop stop-color="#B2B4B4" offset="82%"/><stop stop-color="#D1D3D4" offset="100%"/></linearGradient><linearGradient x1="100%" y1="49.966%" x2="-.22%" y2="49.966%" id="h"><stop stop-color="#666" offset="0%"/><stop stop-color="#6B6B6B" offset="17%"/><stop stop-color="#797A7A" offset="37%"/><stop stop-color="#919292" offset="59%"/><stop stop-color="#B2B4B4" offset="82%"/><stop stop-color="#D1D3D4" offset="100%"/></linearGradient><linearGradient x1="100%" y1="50%" x2="0%" y2="50%" id="i"><stop stop-color="#666" offset="0%"/><stop stop-color="#6B6B6B" offset="17%"/><stop stop-color="#797A7A" offset="37%"/><stop stop-color="#919292" offset="59%"/><stop stop-color="#B2B4B4" offset="82%"/><stop stop-color="#D1D3D4" offset="100%"/></linearGradient></defs><g fill-rule="nonzero" fill="none"><path d="M57.667 0v98h58V0h-58zm50 90h-42V8h42v82z" fill="#EBEBEB"/><path d="M60.667 3v92h52V3h-52zm47 87h-42V8h42v82z" fill="#EBEBEB"/><path fill="#F7F7F7" d="M112.333 3.333l.667-.666H60.333l.667.666z"/><path fill="#D6D6D6" d="M61 3.333l-.667-.666v92.666l.667-.666z"/><path fill="#D6D6D6" d="M61 94.667l-.667.666H113l-.667-.666z"/><path fill="#F7F7F7" d="M112.333 3.333v91.334l.667.666V2.667z"/><path fill="#D6D6D6" d="M107.333 8.667L108 8H65.667l.666.667z"/><path fill="#F7F7F7" d="M66.333 8.667L65.667 8v82l.666-.667z"/><path fill="#D6D6D6" d="M107.333 8.667v80.666L108 90V8z"/><path fill="#F7F7F7" d="M66.333 89.333l-.666.667H108l-.667-.667z"/><path fill="url(#a)" opacity=".2" d="M73.333 78.667h-9v-70H93z" transform="translate(2)"/><path d="M107 9v80H66.667V9H107zm.333-.333h-41v80.666h41V8.667z" fill="#666"/><g stroke="#666" stroke-width=".28"><path d="M3.19 44.493c0 .617-.667 1.117-1.52 1.117-.84 0-1.52-.5-1.52-1.117V41.45c0-.617.667-1.117 1.52-1.117.837 0 1.52.5 1.52 1.117v3.043z" fill="url(#b)" transform="translate(61.667 5.667)"/><path d="M2.333 51.333a.647.647 0 1 1-1.293 0l-.097-8.18a.733.733 0 0 1 .744-.646c.356 0 .773.273.773.633l-.127 8.193z" fill="url(#c)" transform="translate(61.667 5.667)"/><path d="M52.667 8.227a.64.64 0 0 1-.667.606.64.64 0 0 1-.667-.606V.94A.64.64 0 0 1 52 .333a.64.64 0 0 1 .667.61v7.284z" fill="url(#d)" transform="translate(61.667 5.667)"/><path d="M52.667 85.56a.64.64 0 0 1-.667.607.64.64 0 0 1-.667-.607v-7.287a.64.64 0 0 1 .667-.61.64.64 0 0 1 .667.61v7.287z" fill="url(#e)" transform="translate(61.667 5.667)"/></g><path d="M2 0v98h58V0H2zm8 8h42v82H10V8z" fill="#EBEBEB"/><path d="M5 3v92h52V3H5zm5 5h42v82H10V8z" fill="#EBEBEB"/><path fill="#F7F7F7" d="M5.333 3.333l-.666-.666h52.666l-.666.666z"/><path fill="#D6D6D6" d="M56.667 3.333l.666-.666v92.666l-.666-.666z"/><path fill="#D6D6D6" d="M56.667 94.667l.666.666H4.667l.666-.666z"/><path fill="#F7F7F7" d="M5.333 3.333v91.334l-.666.666V2.667z"/><path fill="#D6D6D6" d="M10.333 8.667L9.667 8H52l-.667.667z"/><path fill="#F7F7F7" d="M51.333 8.667L52 8v82l-.667-.667z"/><path fill="#D6D6D6" d="M10.333 8.667v80.666L9.667 90V8z"/><path fill="#F7F7F7" d="M51.333 89.333L52 90H9.667l.666-.667z"/><path fill="url(#f)" opacity=".2" d="M40.333 78.667h9v-70H20.667z" transform="translate(2)"/><path d="M51 9v80H10.667V9H51zm.333-.333h-41v80.666h41V8.667z" fill="#666"/><path d="M50.813 50.16c0 .617.667 1.117 1.517 1.117.84 0 1.52-.5 1.52-1.117v-3.043c0-.617-.667-1.117-1.52-1.117-.837 0-1.517.5-1.517 1.117v3.043z" stroke="#666" stroke-width=".28" fill="url(#g)" transform="translate(2)"/><path d="M51.683 57a.647.647 0 0 0 1.294 0l.096-8.18a.733.733 0 0 0-.743-.647c-.357 0-.773.274-.773.634L51.683 57z" stroke="#666" stroke-width=".28" fill="url(#h)" transform="translate(2)"/><path d="M1.333 13.893A.64.64 0 0 0 2 14.5a.64.64 0 0 0 .667-.607V6.607A.64.64 0 0 0 2 6a.64.64 0 0 0-.667.61v7.283zM1.333 91.227a.64.64 0 0 0 .667.606.64.64 0 0 0 .667-.606V83.94A.64.64 0 0 0 2 83.333a.64.64 0 0 0-.667.61v7.284z" stroke="#666" stroke-width=".28" fill="url(#i)" transform="translate(2)"/></g></svg>