<svg fill="none" height="463" viewBox="0 0 367 463" width="367" xmlns="http://www.w3.org/2000/svg" xmlns:xlink="http://www.w3.org/1999/xlink"><linearGradient id="a"><stop offset="0" stop-color="#fff"/><stop offset="1" stop-color="#fff" stop-opacity="0"/></linearGradient><linearGradient id="b" gradientUnits="userSpaceOnUse" x1="273.542" x2="239.468" xlink:href="#a" y1="26.474" y2="171.7"/><linearGradient id="c" gradientUnits="userSpaceOnUse" x1="264.542" x2="230.468" xlink:href="#a" y1="255.142" y2="400.368"/><linearGradient id="d" gradientUnits="userSpaceOnUse" x1="76.3744" x2="42.3006" xlink:href="#a" y1="26.474" y2="171.7"/><linearGradient id="e" gradientUnits="userSpaceOnUse" x1="67.3744" x2="33.3006" xlink:href="#a" y1="255.142" y2="400.368"/><linearGradient id="f"><stop offset="0" stop-color="#666"/><stop offset=".17" stop-color="#6b6b6b"/><stop offset=".37" stop-color="#797a7a"/><stop offset=".59" stop-color="#919292"/><stop offset=".82" stop-color="#b2b4b4"/><stop offset="1" stop-color="#d1d3d4"/></linearGradient><linearGradient id="g" gradientUnits="userSpaceOnUse" x1="214.43" x2="223.55" xlink:href="#f" y1="137.761" y2="137.761"/><linearGradient id="h" gradientUnits="userSpaceOnUse" x1="948.218" x2="968.921" xlink:href="#f" y1="14671.4" y2="14671.4"/><linearGradient id="i" gradientUnits="userSpaceOnUse" x1="1555.59" x2="1571.59" xlink:href="#f" y1="15953.4" y2="15953.4"/><linearGradient id="j" gradientUnits="userSpaceOnUse" x1="1555.59" x2="1571.59" xlink:href="#f" y1="11394.5" y2="11394.5"/><linearGradient id="k" gradientUnits="userSpaceOnUse" x1="-32167.1" x2="-32250.3" xlink:href="#f" y1="-7761.31" y2="-7761.31"/><linearGradient id="l" gradientUnits="userSpaceOnUse" x1="-14070.9" x2="-14091.6" xlink:href="#f" y1="-14009.4" y2="-14009.4"/><linearGradient id="m" gradientUnits="userSpaceOnUse" x1="-12308.2" x2="-12324.2" xlink:href="#f" y1="-15293.6" y2="-15293.6"/><linearGradient id="n" gradientUnits="userSpaceOnUse" x1="-12308.2" x2="-12324.2" xlink:href="#f" y1="-10734.1" y2="-10734.1"/><path d="m256.167 205h-27v-172.668h86z" fill="url(#b)" opacity=".2"/><path d="m247.167 433.668h-27v-172.668h86z" fill="url(#c)" opacity=".2"/><path d="m59 205h-27v-172.668h86z" fill="url(#d)" opacity=".2"/><path d="m50 433.668h-27v-172.668h86z" fill="url(#e)" opacity=".2"/><path d="m181.245 246v215h185v-215zm163 195.133h-124v-180.059h124z" fill="#ebebeb"/><path d="m184.245 253.14v207.86h176v-207.86zm161 187.993h-126v-180.059h126z" fill="#ebebeb"/><path d="m344.245 260.399 2-1.587h-127l2 1.587z" fill="#d6d6d6"/><path d="m221.245 260.282-2-1.588v184.144l2-1.588z" fill="#f7f7f7"/><path d="m344.245 260.282v180.968l2 1.588v-184.144z" fill="#d6d6d6"/><path d="m221.245 441.251-2 1.587h127l-2-1.587z" fill="#f7f7f7"/><path d="m343.245 261.163v179.324h-121v-179.324zm1-.764h-123v180.852h123z" fill="#666"/><path d="m181.245 1.35074v257.64926h185v-257.64928zm163 238.63426h-124v-220.5703h124z" fill="#ebebeb"/><path d="m184.245 9.90735v249.09265h176v-249.09266zm161 230.07765h-126v-220.5703h126z" fill="#ebebeb"/><path d="m344.245 18.6059 2-1.9015h-127l2 1.9015z" fill="#d6d6d6"/><path d="m221.245 18.4653-2-1.9028v225.4665l2-1.903z" fill="#f7f7f7"/><path d="m344.245 18.4653v221.6607l2 1.903v-225.4665z" fill="#d6d6d6"/><path d="m221.245 240.127-2 1.902h127l-2-1.902z" fill="#f7f7f7"/><path d="m343.245 19.5212v219.6908h-121v-219.6908zm1-.9153h-123v221.5211h123z" fill="#666"/><path d="m334.918 227h-106v-195h106zm-105.138-1h104.276v-193h-104.276z" fill="#666"/><path d="m188.918 2 .062 256.851h177v-256.851zm151.062 225.868h-126v-202.8812h126z" fill="#ebebeb"/><path d="m188.98 14.8508v244.0002h166v-243.0002zm147 214.0002h-109v-198.0002h109z" fill="#ebebeb"/><path d="m353.98 16.8508 2-2h-148l2 2z" fill="#f7f7f7"/><path d="m209.918 16.8508-2-2v232.0002l2-2z" fill="#d6d6d6"/><path d="m209.98 244.851-2 2h148l-2-2z" fill="#d6d6d6"/><path d="m353.98 16.8508v228.0002l2 2v-232.0002z" fill="#f7f7f7"/><path d="m334.918 32 2-2h-110l2 2z" fill="#d6d6d6"/><path d="m228.918 32.0092-2-2.0092v199l2-2.009z" fill="#f7f7f7"/><path d="m334.918 32.0092v194.9818l2 2.009v-199z" fill="#d6d6d6"/><path d="m228.98 227-2 2h110l-2-2z" fill="#f7f7f7"/><g stroke="#666" stroke-width=".28"><path d="m223.55 142.321c0 1.85-2.05 3.35-4.56 3.35-2.52 0-4.56-1.5-4.56-3.35v-9.12c0-1.85 2-3.35 4.56-3.35 2.51 0 4.56 1.5 4.56 3.35z" fill="url(#g)"/><path d="m220.93 162.841c0 .514-.204 1.008-.568 1.372-.364.363-.857.568-1.372.568-.514 0-1.008-.205-1.372-.568-.364-.364-.568-.858-.568-1.372l-.29-24.54c.064-.543.328-1.042.741-1.401.412-.358.943-.551 1.489-.539 1.07 0 2.32.82 2.32 1.89z" fill="url(#h)"/><path d="m359.918 48.5307c-.047.4979-.278.9604-.648 1.2969-.37.3366-.852.5231-1.352.5231s-.982-.1865-1.352-.5231c-.37-.3365-.601-.799-.648-1.2969v-21.87c.047-.4978.278-.9603.648-1.2969.37-.3365.852-.5231 1.352-.5231s.982.1866 1.352.5231c.37.3366.601.7991.648 1.2969z" fill="url(#i)"/><path d="m359.918 234.531c-.047.498-.278.96-.648 1.297-.37.336-.852.523-1.352.523s-.982-.187-1.352-.523c-.37-.337-.601-.799-.648-1.297v-21.87c.047-.498.278-.961.648-1.297.37-.337.852-.523 1.352-.523s.982.186 1.352.523c.37.336.601.799.648 1.297z" fill="url(#j)"/></g><path d="m185.918 246v215h-184.999787v-215zm-162.9998 195.133h123.9998v-180.059h-123.9998z" fill="#ebebeb"/><path d="m182.918 253.14v207.86h-175.99979v-207.86zm-160.9998 187.993h125.9998v-180.059h-125.9998z" fill="#ebebeb"/><path d="m22.9182 260.399-2-1.587h126.9998l-2 1.587z" fill="#d6d6d6"/><path d="m145.918 260.282 2-1.588v184.144l-2-1.588z" fill="#f7f7f7"/><path d="m22.9182 260.282v180.968l-2 1.588v-184.144z" fill="#d6d6d6"/><path d="m145.918 441.251 2 1.587h-126.9998l2-1.587z" fill="#f7f7f7"/><path d="m23.9182 261.163v179.324h120.9998v-179.324zm-1-.764h122.9998v180.852h-122.9998z" fill="#666"/><path d="m185.918 1.35074v257.64926h-184.999787v-257.64928zm-162.9998 238.63426h123.9998v-220.5703h-123.9998z" fill="#ebebeb"/><path d="m182.918 9.90735v249.09265h-175.99979v-249.09266zm-160.9998 230.07765h125.9998v-220.5703h-125.9998z" fill="#ebebeb"/><path d="m22.9182 18.6059-2-1.9015h126.9998l-2 1.9015z" fill="#d6d6d6"/><path d="m145.918 18.4653 2-1.9028v225.4665l-2-1.903z" fill="#f7f7f7"/><path d="m22.9182 18.4653v221.6607l-2 1.903v-225.4665z" fill="#d6d6d6"/><path d="m145.918 240.127 2 1.902h-126.9998l2-1.902z" fill="#f7f7f7"/><path d="m23.9182 19.5212v219.6908h120.9998v-219.6908zm-1-.9153h122.9998v221.5211h-122.9998z" fill="#666"/><path d="m32.2454 227h105.9996v-195h-105.9996zm105.1386-1h-104.2768v-193h104.2768z" fill="#666"/><path d="m168.245 2-.061 256.851h-167.00041v-256.851zm-141.0614 225.868h126.0004v-202.8812h-126.0004z" fill="#ebebeb"/><path d="m168.184 14.8508v244.0002h-156.0004v-243.0002zm-137.0004 214.0002h109.0004v-198.0002h-109.0004z" fill="#ebebeb"/><path d="m13.1836 16.8508-2-2h148.0004l-2 2z" fill="#f7f7f7"/><path d="m157.245 16.8508 2-2v232.0002l-2-2z" fill="#d6d6d6"/><path d="m157.184 244.851 2 2h-148.0004l2-2z" fill="#d6d6d6"/><path d="m13.1836 16.8508v228.0002l-2 2v-232.0002z" fill="#f7f7f7"/><path d="m32.2454 32-2-2h109.9996l-2 2z" fill="#d6d6d6"/><path d="m138.245 32.0092 2-2.0092v199l-2-2.009z" fill="#f7f7f7"/><path d="m32.2454 32.0092v194.9818l-2 2.009v-199z" fill="#d6d6d6"/><path d="m138.184 227 2 2h-110.0004l2-2z" fill="#f7f7f7"/><g stroke="#666" stroke-width=".28"><path d="m143.614 142.321c0 1.85 2.05 3.35 4.56 3.35 2.52 0 4.56-1.5 4.56-3.35v-9.12c0-1.85-2-3.35-4.56-3.35-2.51 0-4.56 1.5-4.56 3.35z" fill="url(#k)"/><path d="m146.234 162.841c0 .514.204 1.008.568 1.372.364.363.857.568 1.372.568.514 0 1.008-.205 1.372-.568.363-.364.568-.858.568-1.372l.29-24.54c-.065-.543-.329-1.042-.741-1.401-.412-.358-.943-.551-1.489-.539-1.07 0-2.32.82-2.32 1.89z" fill="url(#l)"/><path d="m7.24536 48.5307c.02591.5059.25065.981.62525 1.3219.3746.3408.86873.5199 1.37475.4981.50602.0218 1.00014-.1573 1.37474-.4981.3746-.3409.5994-.816.6253-1.3219v-21.87c-.0259-.5058-.2507-.9809-.6253-1.3218s-.86872-.5199-1.37474-.4982c-.50602-.0217-1.00015.1573-1.37475.4982s-.59934.816-.62525 1.3218z" fill="url(#m)"/><path d="m7.24536 234.531c.02591.506.25065.981.62525 1.322.3746.34.86873.52 1.37475.498.50602.022 1.00014-.158 1.37474-.498.3746-.341.5994-.816.6253-1.322v-21.87c-.0259-.506-.2507-.981-.6253-1.322s-.86872-.52-1.37474-.498c-.50602-.022-1.00015.157-1.37475.498s-.59934.816-.62525 1.322z" fill="url(#n)"/></g><g fill="#d6d6d6"><path d="m176.082 1.35071h-2v459.64929h2z"/><path d="m193.082 1.35071h-2v459.64929h2z"/></g></svg>