<svg height="84" viewBox="0 0 50 84" width="50" xmlns="http://www.w3.org/2000/svg" xmlns:xlink="http://www.w3.org/1999/xlink"><linearGradient id="a" x1="51.383%" x2="4.109%" y1="-2.45%" y2="80.087%"><stop offset="0" stop-color="#fff"/><stop offset="1" stop-color="#fff" stop-opacity="0"/></linearGradient><linearGradient id="b"><stop offset="0" stop-color="#666"/><stop offset=".17" stop-color="#6b6b6b"/><stop offset=".37" stop-color="#797a7a"/><stop offset=".59" stop-color="#919292"/><stop offset=".82" stop-color="#b2b4b4"/><stop offset="1" stop-color="#d1d3d4"/></linearGradient><linearGradient id="c" x1="0%" xlink:href="#b" y1="50.108%" y2="50.108%"/><linearGradient id="d" x1="0%" xlink:href="#b" y1="49.942%" y2="49.942%"/><linearGradient id="e" x1="0%" xlink:href="#b" y1="50.065%" y2="50.065%"/><linearGradient id="f" x1="0%" xlink:href="#b" y1="49.655%" y2="49.655%"/><g fill="none" fill-rule="evenodd"><path d="m0 0v84h49.72v-84zm42.86 77.16h-36v-70.3h36z" fill="#ebebeb" fill-rule="nonzero"/><path d="m2.57 2.57v78.87h44.58v-78.87zm40.29 74.59h-36v-70.3h36z" fill="#ebebeb" fill-rule="nonzero"/><path d="m46.87 2.86.57-.57h-45.15l.57.57z" fill="#f7f7f7"/><path d="m2.86 2.86-.57-.57v79.44l.57-.57z" fill="#d6d6d6"/><path d="m2.86 81.16-.57.57h45.15l-.57-.57z" fill="#d6d6d6"/><path d="m46.87 2.86v78.3l.57.57v-79.44z" fill="#f7f7f7"/><path d="m42.58 7.43.57-.57h-36.29l.57.57z" fill="#d6d6d6"/><path d="m7.43 7.43-.57-.57v70.3l.57-.58z" fill="#f7f7f7"/><path d="m42.58 7.43v69.15l.57.58v-70.3z" fill="#d6d6d6"/><path d="m7.43 76.58-.57.58h36.29l-.57-.58z" fill="#f7f7f7"/><path d="m15.14 67.44h-7.71v-60.01h24.58z" fill="url(#a)" opacity=".2"/><path d="m41.58 8.43v67.15h-33.15v-67.15zm1-1h-35.15v69.15h35.15z" fill="#666" fill-rule="nonzero"/><g stroke="#666" stroke-width=".28"><path d="m6.16 43c0 .53-.58 1-1.3 1s-1.3-.43-1.3-1v-2.61c0-.53.58-1 1.3-1s1.3.42 1.3 1z" fill="url(#c)"/><path d="m5.41 48.86a.55.55 0 1 1 -1.1 0l-.09-7a.62.62 0 0 1 .64-.55.64.64 0 0 1 .66.54z" fill="url(#d)"/><path d="m48.58 11.91a.55.55 0 0 1 -.57.52.54.54 0 0 1 -.57-.52v-6.25a.55.55 0 0 1 .56-.52.55.55 0 0 1 .57.52z" fill="url(#e)"/><path d="m48.58 78.21a.55.55 0 0 1 -.57.52.54.54 0 0 1 -.57-.52v-6.21a.54.54 0 0 1 .57-.52.55.55 0 0 1 .57.52z" fill="url(#f)"/></g></g></svg>
