<svg viewBox="0 0 174 294" xmlns="http://www.w3.org/2000/svg" xmlns:xlink="http://www.w3.org/1999/xlink"><linearGradient id="a" gradientUnits="userSpaceOnUse" x1="58.52" x2="30.22" y1="97.52" y2="218.14"><stop offset="0" stop-color="#fff"/><stop offset="1" stop-color="#fff" stop-opacity="0"/></linearGradient><linearGradient id="b" x1="58.81" x2="41.82" xlink:href="#a" y1="6.29" y2="78.71"/><path d="M0 90v204h174V90zm160 190H14V104h146z" fill="#ebebeb"/><path d="M160 104l2-2H12l2 2z" fill="#d6d6d6"/><path d="M14 104l-2-2v180l2-2z" fill="#f7f7f7"/><path d="M160 104v176l2 2V102z" fill="#d6d6d6"/><path d="M14 280l-2 2h150l-2-2z" fill="#f7f7f7"/><path d="M41 244H14V104h86z" fill="url(#a)" opacity=".2"/><path d="M159 105v174H15V105zm1-1H14v176h146z" fill="#666"/><path d="M0 0v104h174V0zm160 90H14V14h146z" fill="#ebebeb"/><path d="M160 14l2-2H12l2 2z" fill="#d6d6d6"/><path d="M14 14l-2-2v80l2-2z" fill="#f7f7f7"/><path d="M160 14v76l2 2V12z" fill="#d6d6d6"/><path d="M14 90l-2 2h150l-2-2z" fill="#f7f7f7"/><path d="M61 90H14V14h86z" fill="url(#b)" opacity=".2"/><path d="M159 15v74H15V15zm1-1H14v76h146z" fill="#666"/></svg>