<svg viewBox="0 0 326 298" xmlns="http://www.w3.org/2000/svg" xmlns:xlink="http://www.w3.org/1999/xlink"><linearGradient id="a" gradientUnits="userSpaceOnUse" x1="265.07" x2="235.42" y1="92.78" y2="219.16"><stop offset="0" stop-color="#fff"/><stop offset="1" stop-color="#fff" stop-opacity="0"/></linearGradient><linearGradient id="c" x1="53.23" x2="23.57" xlink:href="#a" y1="92.78" y2="219.16"/><linearGradient id="d" x1="121.85" x2="101.3" xlink:href="#a" y1="-6.67" y2="80.93"/><linearGradient id="e" x1="162.07" x2="136.36" xlink:href="#a" y1="105.46" y2="215.01"/><linearGradient id="b" gradientUnits="userSpaceOnUse" x1="114.45" x2="123.56" y1="189.91" y2="189.91"><stop offset="0" stop-color="#666"/><stop offset=".17" stop-color="#6b6b6b"/><stop offset=".37" stop-color="#797a7a"/><stop offset=".59" stop-color="#919292"/><stop offset=".82" stop-color="#b2b4b4"/><stop offset="1" stop-color="#d1d3d4"/></linearGradient><linearGradient id="f" x1="116.78" x2="121.33" xlink:href="#b" y1="202.72" y2="202.72"/><linearGradient id="g" x1="216" x2="220" xlink:href="#b" y1="114.75" y2="114.75"/><linearGradient id="h" x1="216" x2="220" xlink:href="#b" y1="266.75" y2="266.75"/><path d="M211.84 84v214h114V84zm100 200h-86V98h86z" fill="#ebebeb"/><path d="M311.84 98l2-2h-90l2 2z" fill="#d6d6d6"/><path d="M225.84 98l-2-2v190l2-2z" fill="#f7f7f7"/><path d="M311.84 98v186l2 2V96z" fill="#d6d6d6"/><path d="M225.84 284l-2 2h90l-2-2z" fill="#f7f7f7"/><path d="M242.84 248h-17V98h76z" fill="url(#a)" opacity=".2"/><path d="M310.84 99v184h-84V99zm1-1h-86v186h86z" fill="#666"/><path d="M0 84v214h114V84zm100 200H14V98h86z" fill="#ebebeb"/><path d="M100 98l2-2H12l2 2z" fill="#d6d6d6"/><path d="M14 98l-2-2v190l2-2z" fill="#f7f7f7"/><path d="M100 98v186l2 2V96z" fill="#d6d6d6"/><path d="M14 284l-2 2h90l-2-2z" fill="#f7f7f7"/><path d="M31 248H14V98h76z" fill="url(#c)" opacity=".2"/><path d="M99 99v184H15V99zm1-1H14v186h86z" fill="#666"/><path d="M0 0v96h326V0zm312 82H14V14h298z" fill="#ebebeb"/><path d="M312 14l2-2H12l2 2z" fill="#d6d6d6"/><path d="M14 14l-2-2v72l2-2z" fill="#f7f7f7"/><path d="M312 14v68l2 2V12z" fill="#d6d6d6"/><path d="M14 82l-2 2h302l-2-2z" fill="#f7f7f7"/><path d="M181 82H14V14h206z" fill="url(#d)" opacity=".2"/><path d="M311 15v66H15V15zm1-1H14v68h298z" fill="#666"/><path d="M102 84v214h122V84zm98 190h-74V108h74z" fill="#ebebeb"/><path d="M111 93v196h104V93zm89 181h-74V108h74z" fill="#ebebeb"/><path d="M214 94l2-2H110l2 2z" fill="#f7f7f7"/><path d="M112 94l-2-2v198l2-2z" fill="#d6d6d6"/><path d="M112 288l-2 2h106l-2-2z" fill="#d6d6d6"/><path d="M214 94v194l2 2V92z" fill="#f7f7f7"/><path d="M199 110l2-2h-75l2 2z" fill="#d6d6d6"/><path d="M128 110l-2-2v166l2-2z" fill="#f7f7f7"/><path d="M199 110v162l2 2V108z" fill="#d6d6d6"/><path d="M128 272l-2 2h75l-2-2z" fill="#f7f7f7"/><path d="M135 240h-7V110h66z" fill="url(#e)" opacity=".2"/><path d="M198 111v160h-69V111zm1-1h-71v162h71z" fill="#666"/><g stroke="#666" stroke-width=".28"><path d="M123.56 194.48c0 1.85-2 3.35-4.55 3.35-2.52 0-4.56-1.5-4.56-3.35v-9.13c0-1.85 2-3.35 4.56-3.35 2.51 0 4.55 1.5 4.55 3.35z" fill="url(#b)"/><path d="M121 215a1.94 1.94 0 0 1-1.94 1.94 1.93 1.93 0 0 1-1.94-1.94l-.29-24.54a2.2 2.2 0 0 1 2.23-1.94c1.07 0 2.32.82 2.32 1.9z" fill="url(#f)"/><path d="M220 125.68a1.92 1.92 0 0 1-2 1.82 1.92 1.92 0 0 1-2-1.82v-21.86a1.92 1.92 0 0 1 2-1.83 1.92 1.92 0 0 1 2 1.83z" fill="url(#g)"/><path d="M220 277.68a1.92 1.92 0 0 1-2 1.82 1.92 1.92 0 0 1-2-1.82v-21.86a1.92 1.92 0 0 1 2-1.83 1.92 1.92 0 0 1 2 1.83z" fill="url(#h)"/></g></svg>