<svg width="146" height="84" xmlns="http://www.w3.org/2000/svg"><defs><linearGradient x1="51.395%" y1="-2.448%" x2="4.116%" y2="80.095%" id="a"><stop stop-color="#FFF" offset="0%"/><stop stop-color="#FFF" stop-opacity="0" offset="100%"/></linearGradient><linearGradient x1="0%" y1="49.968%" x2="100%" y2="49.968%" id="b"><stop stop-color="#666" offset="0%"/><stop stop-color="#6B6B6B" offset="17%"/><stop stop-color="#797A7A" offset="37%"/><stop stop-color="#919292" offset="59%"/><stop stop-color="#B2B4B4" offset="82%"/><stop stop-color="#D1D3D4" offset="100%"/></linearGradient><linearGradient x1="0%" y1="49.965%" x2="100%" y2="49.965%" id="c"><stop stop-color="#666" offset="0%"/><stop stop-color="#6B6B6B" offset="17%"/><stop stop-color="#797A7A" offset="37%"/><stop stop-color="#919292" offset="59%"/><stop stop-color="#B2B4B4" offset="82%"/><stop stop-color="#D1D3D4" offset="100%"/></linearGradient><linearGradient x1="0%" y1="50.019%" x2="100%" y2="50.019%" id="d"><stop stop-color="#666" offset="0%"/><stop stop-color="#6B6B6B" offset="17%"/><stop stop-color="#797A7A" offset="37%"/><stop stop-color="#919292" offset="59%"/><stop stop-color="#B2B4B4" offset="82%"/><stop stop-color="#D1D3D4" offset="100%"/></linearGradient><linearGradient x1="48.593%" y1="-2.448%" x2="95.884%" y2="80.095%" id="e"><stop stop-color="#FFF" offset="0%"/><stop stop-color="#FFF" stop-opacity="0" offset="100%"/></linearGradient><linearGradient x1="99.781%" y1="49.968%" x2="-.219%" y2="49.968%" id="f"><stop stop-color="#666" offset="0%"/><stop stop-color="#6B6B6B" offset="17%"/><stop stop-color="#797A7A" offset="37%"/><stop stop-color="#919292" offset="59%"/><stop stop-color="#B2B4B4" offset="82%"/><stop stop-color="#D1D3D4" offset="100%"/></linearGradient><linearGradient x1="100%" y1="49.965%" x2="0%" y2="49.965%" id="g"><stop stop-color="#666" offset="0%"/><stop stop-color="#6B6B6B" offset="17%"/><stop stop-color="#797A7A" offset="37%"/><stop stop-color="#919292" offset="59%"/><stop stop-color="#B2B4B4" offset="82%"/><stop stop-color="#D1D3D4" offset="100%"/></linearGradient><linearGradient x1="100%" y1="50.019%" x2="0%" y2="50.019%" id="h"><stop stop-color="#666" offset="0%"/><stop stop-color="#6B6B6B" offset="17%"/><stop stop-color="#797A7A" offset="37%"/><stop stop-color="#919292" offset="59%"/><stop stop-color="#B2B4B4" offset="82%"/><stop stop-color="#D1D3D4" offset="100%"/></linearGradient><linearGradient x1="48.605%" y1="-2.448%" x2="95.884%" y2="80.095%" id="i"><stop stop-color="#FFF" offset="0%"/><stop stop-color="#FFF" stop-opacity="0" offset="100%"/></linearGradient><linearGradient x1="100%" y1="49.968%" x2="0%" y2="49.968%" id="j"><stop stop-color="#666" offset="0%"/><stop stop-color="#6B6B6B" offset="17%"/><stop stop-color="#797A7A" offset="37%"/><stop stop-color="#919292" offset="59%"/><stop stop-color="#B2B4B4" offset="82%"/><stop stop-color="#D1D3D4" offset="100%"/></linearGradient><linearGradient x1="100.22%" y1="49.966%" x2="0%" y2="49.966%" id="k"><stop stop-color="#666" offset="0%"/><stop stop-color="#6B6B6B" offset="17%"/><stop stop-color="#797A7A" offset="37%"/><stop stop-color="#919292" offset="59%"/><stop stop-color="#B2B4B4" offset="82%"/><stop stop-color="#D1D3D4" offset="100%"/></linearGradient><linearGradient x1="100%" y1="50%" x2="0%" y2="50%" id="l"><stop stop-color="#666" offset="0%"/><stop stop-color="#6B6B6B" offset="17%"/><stop stop-color="#797A7A" offset="37%"/><stop stop-color="#919292" offset="59%"/><stop stop-color="#B2B4B4" offset="82%"/><stop stop-color="#D1D3D4" offset="100%"/></linearGradient></defs><g fill-rule="nonzero" fill="none"><path d="M96.544 0v83.348h49.328V0H96.544zm42.525 76.544h-35.72V6.804h35.72v69.74z" fill="#EBEBEB"/><path d="M99.096 2.551v78.245h44.225V2.551H99.096zm39.973 73.993h-35.72V6.804h35.72v69.74z" fill="#EBEBEB"/><path fill="#F7F7F7" d="M143.037 2.835l.567-.567H98.812l.567.567z"/><path fill="#D6D6D6" d="M99.38 2.835l-.568-.567V81.08l.567-.567zM99.38 80.513l-.568.567h44.792l-.567-.567z"/><path fill="#F7F7F7" d="M143.037 2.835v77.678l.567.567V2.268z"/><path fill="#D6D6D6" d="M138.785 7.37l.567-.566h-36.004l.567.567z"/><path fill="#F7F7F7" d="M103.915 7.37l-.567-.566v69.74l.567-.567z"/><path fill="#D6D6D6" d="M138.785 7.37v68.607l.567.567V6.804z"/><path fill="#F7F7F7" d="M103.915 75.977l-.567.567h36.004l-.567-.567z"/><path fill="url(#a)" opacity=".2" d="M111.57 66.905h-7.655V7.37h24.38z"/><path d="M138.502 7.654v68.04h-34.303V7.653h34.303zm.283-.283h-34.87v68.606h34.87V7.37z" fill="#666"/><g stroke="#666" stroke-width=".28"><path d="M2.866 37.84c0 .525-.567.95-1.293.95-.714 0-1.292-.425-1.292-.95v-2.587c0-.525.567-.95 1.292-.95.715 0 1.293.425 1.293.95v2.588z" fill="url(#b)" transform="translate(99.79 4.82)"/><path d="M2.123 43.658a.55.55 0 1 1-1.1 0l-.082-6.957a.627.627 0 0 1 .632-.55c.304 0 .66.233.66.539l-.11 6.968z" fill="url(#c)" transform="translate(99.79 4.82)"/><path d="M44.948 6.997a.544.544 0 0 1-.567.516.541.541 0 0 1-.567-.516V.799a.544.544 0 0 1 .567-.518c.3-.013.553.219.567.518v6.198zM44.948 72.768a.544.544 0 0 1-.567.515.541.541 0 0 1-.567-.515V66.57a.544.544 0 0 1 .567-.518c.3-.013.553.219.567.518v6.198z" fill="url(#d)" transform="translate(99.79 4.82)"/></g><path d="M49.2 0v83.348H98.53V0H49.2zm6.804 6.804h35.72v69.74h-35.72V6.804z" fill="#EBEBEB"/><path d="M51.752 2.551v78.245h44.225V2.551H51.752zm4.252 4.253h35.72v69.74h-35.72V6.804z" fill="#EBEBEB"/><path fill="#F7F7F7" d="M52.036 2.835l-.567-.567H96.26l-.567.567z"/><path fill="#D6D6D6" d="M95.694 2.835l.567-.567V81.08l-.567-.567z"/><path fill="#D6D6D6" d="M95.694 80.513l.567.567H51.469l.567-.567z"/><path fill="#F7F7F7" d="M52.036 2.835v77.678l-.567.567V2.268z"/><path fill="#D6D6D6" d="M56.288 7.37l-.567-.566h36.004l-.567.567z"/><path fill="#F7F7F7" d="M91.158 7.37l.567-.566v69.74l-.567-.567z"/><path fill="#D6D6D6" d="M56.288 7.37v68.607l-.567.567V6.804z"/><path fill="#F7F7F7" d="M91.158 75.977l.567.567H55.72l.567-.567z"/><path fill="url(#e)" opacity=".2" d="M83.503 66.905h7.655V7.37h-24.38z"/><path d="M90.874 7.654v68.04H56.571V7.653h34.303zm.284-.283h-34.87v68.606h34.87V7.37z" fill="#666"/><path d="M92.42 42.66c0 .525.566.95 1.292.95.715 0 1.293-.425 1.293-.95v-2.588c0-.524-.567-.95-1.293-.95-.714 0-1.293.426-1.293.95v2.588z" stroke="#666" stroke-width=".28" fill="url(#f)"/><path d="M93.157 48.478a.55.55 0 1 0 1.1 0l.082-6.957a.627.627 0 0 0-.633-.55c-.303 0-.66.232-.66.538l.11 6.969z" stroke="#666" stroke-width=".28" fill="url(#g)"/><path d="M50.335 11.816a.541.541 0 0 0 .567.516.544.544 0 0 0 .567-.516V5.62a.544.544 0 0 0-.567-.519.544.544 0 0 0-.567.519v6.197zM50.335 77.587a.541.541 0 0 0 .567.516.544.544 0 0 0 .567-.516V71.39a.544.544 0 0 0-.567-.519.544.544 0 0 0-.567.519v6.197z" stroke="#666" stroke-width=".28" fill="url(#h)"/><path d="M0 0v83.348h49.328V0H0zm6.804 6.804h35.72v69.74H6.804V6.804z" fill="#EBEBEB"/><path d="M2.551 2.551v78.245h44.226V2.551H2.55zm4.253 4.253h35.72v69.74H6.804V6.804z" fill="#EBEBEB"/><path fill="#F7F7F7" d="M2.835 2.835l-.567-.567H47.06l-.567.567z"/><path fill="#D6D6D6" d="M46.493 2.835l.567-.567V81.08l-.567-.567z"/><path fill="#D6D6D6" d="M46.493 80.513l.567.567H2.268l.567-.567z"/><path fill="#F7F7F7" d="M2.835 2.835v77.678l-.567.567V2.268z"/><path fill="#D6D6D6" d="M7.087 7.37l-.567-.566h36.004l-.567.567z"/><path fill="#F7F7F7" d="M41.957 7.37l.567-.566v69.74l-.567-.567z"/><path fill="#D6D6D6" d="M7.087 7.37v68.607l-.567.567V6.804z"/><path fill="#F7F7F7" d="M41.957 75.977l.567.567H6.52l.567-.567z"/><path fill="url(#i)" opacity=".2" d="M34.303 66.905h7.654V7.37h-24.38z"/><path d="M41.674 7.654v68.04H7.37V7.653h34.303zm.283-.283H7.087v68.606h34.87V7.37z" fill="#666"/><path d="M43.216 42.66c0 .525.567.95 1.29.95.714 0 1.293-.425 1.293-.95v-2.588c0-.524-.567-.95-1.293-.95-.712 0-1.29.426-1.29.95v2.588z" stroke="#666" stroke-width=".28" fill="url(#j)"/><path d="M43.956 48.478a.55.55 0 1 0 1.1 0l.082-6.957a.624.624 0 0 0-.632-.55c-.303 0-.658.232-.658.538l.108 6.969z" stroke="#666" stroke-width=".28" fill="url(#k)"/><path d="M1.134 11.816a.544.544 0 0 0 .567.516.544.544 0 0 0 .567-.516V5.62a.544.544 0 0 0-.567-.516.544.544 0 0 0-.567.519v6.194zM1.134 77.587a.544.544 0 0 0 .567.516.544.544 0 0 0 .567-.516V71.39a.544.544 0 0 0-.567-.516.544.544 0 0 0-.567.519v6.194z" stroke="#666" stroke-width=".28" fill="url(#l)"/></g></svg>